<svg 
 xmlns="http://www.w3.org/2000/svg"
 xmlns:xlink="http://www.w3.org/1999/xlink"
 width="148px" height="191px">
<path fill-rule="evenodd"  fill="rgb(255, 255, 255)"
 d="M143.043,87.262 C145.991,89.924 147.465,93.409 147.465,97.713 C147.465,102.019 145.971,105.483 142.984,108.105 C139.996,110.729 135.514,112.039 129.541,112.039 L91.334,112.039 L91.334,169.760 C91.334,176.963 89.721,182.306 86.499,185.789 C83.274,189.271 79.108,191.014 73.999,191.014 C68.810,191.014 64.583,189.253 61.322,185.730 C58.059,182.207 56.428,176.885 56.428,169.760 L56.428,164.515 C56.044,162.472 55.839,160.223 55.839,157.736 L55.839,112.039 L18.221,112.039 C12.246,112.039 7.803,110.729 4.896,108.105 C1.986,105.483 0.532,102.019 0.532,97.713 C0.532,93.251 2.045,89.728 5.073,87.145 C8.098,84.561 12.481,83.270 18.221,83.270 L42.971,83.270 L13.622,37.963 C9.926,32.091 7.313,27.512 5.780,24.224 C4.247,20.936 3.481,18.079 3.481,15.652 C3.481,11.659 5.032,8.216 8.139,5.319 C11.243,2.423 15.076,0.974 19.636,0.974 C24.430,0.974 28.068,2.324 30.544,5.025 C33.020,7.726 36.735,13.109 41.688,21.171 L73.999,73.425 L106.664,21.171 C108.628,17.962 110.279,15.261 111.616,13.069 C112.952,10.878 114.426,8.823 116.039,6.904 C117.649,4.986 119.438,3.519 121.404,2.500 C123.368,1.484 125.767,0.974 128.597,0.974 C132.999,0.974 136.675,2.403 139.623,5.260 C142.571,8.118 144.045,11.425 144.045,15.182 C144.045,18.235 143.297,21.288 141.805,24.341 C140.311,27.394 137.755,31.622 134.140,37.023 L103.865,83.270 L129.541,83.270 C135.594,83.270 140.095,84.602 143.043,87.262 Z"/>
</svg>